<svg viewBox="0 0 1920 1080" xmlns="http://www.w3.org/2000/svg">
  <!-- Sky gradient -->
  <defs>
    <linearGradient id="skyGradient" x1="0%" y1="0%" x2="0%" y2="100%">
      <stop offset="0%" style="stop-color:#87CEEB;stop-opacity:1" />
      <stop offset="100%" style="stop-color:#4682B4;stop-opacity:1" />
    </linearGradient>
    <linearGradient id="mountainGradient1" x1="0%" y1="0%" x2="0%" y2="100%">
      <stop offset="0%" style="stop-color:#8B7355;stop-opacity:1" />
      <stop offset="50%" style="stop-color:#5D4E37;stop-opacity:1" />
      <stop offset="100%" style="stop-color:#3C3C3C;stop-opacity:1" />
    </linearGradient>
    <linearGradient id="mountainGradient2" x1="0%" y1="0%" x2="0%" y2="100%">
      <stop offset="0%" style="stop-color:#A0522D;stop-opacity:1" />
      <stop offset="50%" style="stop-color:#654321;stop-opacity:1" />
      <stop offset="100%" style="stop-color:#2F2F2F;stop-opacity:1" />
    </linearGradient>
    <linearGradient id="snowGradient" x1="0%" y1="0%" x2="0%" y2="100%">
      <stop offset="0%" style="stop-color:#FFFFFF;stop-opacity:1" />
      <stop offset="100%" style="stop-color:#E6E6FA;stop-opacity:1" />
    </linearGradient>
  </defs>
  
  <!-- Sky background -->
  <rect width="1920" height="1080" fill="url(#skyGradient)"/>
  
  <!-- Back mountains -->
  <polygon points="0,600 300,300 600,450 900,200 1200,350 1500,250 1800,400 1920,380 1920,1080 0,1080" fill="#4682B4" opacity="0.6"/>
  
  <!-- Main Antisana mountain -->
  <polygon points="400,1080 600,400 800,300 1000,200 1200,250 1400,350 1600,450 1920,500 1920,1080" fill="url(#mountainGradient1)"/>
  
  <!-- Secondary peak -->
  <polygon points="0,1080 200,500 400,400 600,350 800,450 1000,400 1200,500 1200,1080" fill="url(#mountainGradient2)"/>
  
  <!-- Snow caps -->
  <polygon points="600,400 800,300 1000,200 1200,250 1000,350 800,380" fill="url(#snowGradient)"/>
  <polygon points="200,500 400,400 600,350 400,450" fill="url(#snowGradient)" opacity="0.8"/>
  
  <!-- Clouds -->
  <circle cx="300" cy="200" r="40" fill="white" opacity="0.7"/>
  <circle cx="340" cy="180" r="50" fill="white" opacity="0.7"/>
  <circle cx="380" cy="200" r="35" fill="white" opacity="0.7"/>
  
  <circle cx="1200" cy="150" r="35" fill="white" opacity="0.6"/>
  <circle cx="1240" cy="130" r="45" fill="white" opacity="0.6"/>
  <circle cx="1280" cy="150" r="30" fill="white" opacity="0.6"/>
  
  <!-- Atmospheric haze -->
  <rect width="1920" height="1080" fill="url(#skyGradient)" opacity="0.2"/>
</svg>
